<?xml version="1.0" encoding="UTF-8" standalone="no"?>
<!-- Generator: Adobe Illustrator 19.0.0, SVG Export Plug-In . SVG Version: 6.00 Build 0)  -->

<svg
   xmlns:dc="http://purl.org/dc/elements/1.1/"
   xmlns:cc="http://creativecommons.org/ns#"
   xmlns:rdf="http://www.w3.org/1999/02/22-rdf-syntax-ns#"
   xmlns:svg="http://www.w3.org/2000/svg"
   xmlns="http://www.w3.org/2000/svg"
   xmlns:sodipodi="http://sodipodi.sourceforge.net/DTD/sodipodi-0.dtd"
   xmlns:inkscape="http://www.inkscape.org/namespaces/inkscape"
   version="1.1"
   id="Layer_1"
   x="0px"
   y="0px"
   viewBox="0 0 900 369.69214"
   xml:space="preserve"
   sodipodi:docname="logo_ieee_bien.svg"
   width="900"
   height="369.69214"
   inkscape:version="0.92.3 (2405546, 2018-03-11)"><metadata
   id="metadata11693"><rdf:RDF><cc:Work
       rdf:about=""><dc:format>image/svg+xml</dc:format><dc:type
         rdf:resource="http://purl.org/dc/dcmitype/StillImage" /><dc:title /></cc:Work></rdf:RDF></metadata><defs
   id="defs11691"><mask
     maskUnits="userSpaceOnUse"
     id="mask12931"><g
       id="g12937"><path
         style="display:inline;fill:#ffffff"
         id="path12933"
         class="st1"
         d="m 202.1,260.5 -2.2,-3.5 c 0,0 -3.5,-10.5 -1.5,-13 2,-2.5 5.1,-8 1.9,-10.5 -1.1,-0.9 -7.4,4.2 -8.5,3.9 -4.8,-1.3 -9.6,3.6 -9.6,3.6 0,0 -3.5,0.5 -3.5,2.1 0,4.2 3,3.2 3,3.2 l 0.5,14.6 c 0,0 -3.1,7.5 -2.8,11.9 0.2,3.1 -9.8,15.3 -11.4,17.8 -4.4,7 -3.8,11.7 -3.8,14.8 0,8 6,11 6.1,13 0.1,2.1 -1.4,5.1 -2.4,7.3 -0.3,0.7 0.2,1.6 0.9,1.6 h 18.7 c 0.8,0 1.2,-1.1 0.5,-1.7 -1.2,-1 -2.5,-2.1 -3.1,-2.6 -1.2,-1.1 4.4,-0.5 3.7,-13.6 -0.3,-4.9 8.8,-18.8 11.5,-21.9 2.1,-2.4 2.4,-6.4 3,-6.7 2.9,-1.6 8.6,-6.1 10.6,-9.9 2.3,-4.5 6.2,-18.2 5,-20.7 -0.9,-1.7 -2.2,-1.9 -3,0.1 -0.7,1.8 -3.1,10.8 -8.9,12.7 -2.2,0.8 -3.4,-0.4 -4.7,-2.5 z"
         inkscape:connector-curvature="0" /><path
         sodipodi:nodetypes="cccccc"
         style="fill:#000000;fill-opacity:1"
         d="m 158.2605,274.5852 c 24.6,10.9 57.4,11.2 83.4,3.1 7.49385,-41.37529 12.44465,-13.8135 -1,-5.7 -19.1,6.9 -40.6,7.6 -60.5,2.3 -5.5,-1.7 -13.4,-4 -14.1,-11 14.78331,-26.97416 -41.40577,-4.63276 -7.8,11.3 z"
         class="st1"
         id="path12935"
         inkscape:connector-curvature="0" /></g></mask><mask
     maskUnits="userSpaceOnUse"
     id="mask13040"><g
       id="g13050"><path
         style="display:inline;fill:#ffffff"
         id="path13042"
         class="st1"
         d="m 202,290.6 c -0.7,12.4 -0.9,23.9 -2,36.2 5.6,0.4 12,0.9 18,0.1 l -1.8,-34.5 -0.3,-1.6 c -4.5,0.1 -8.9,0.2 -13.9,-0.2 z"
         inkscape:connector-curvature="0" /><g
         id="g13048"><path
           mask="url(#mask12931)"
           inkscape:connector-curvature="0"
           d="m 202.1,260.5 -2.2,-3.5 c 0,0 -3.5,-10.5 -1.5,-13 2,-2.5 5.1,-8 1.9,-10.5 -1.1,-0.9 -7.4,4.2 -8.5,3.9 -4.8,-1.3 -9.6,3.6 -9.6,3.6 0,0 -3.5,0.5 -3.5,2.1 0,4.2 3,3.2 3,3.2 l 0.5,14.6 c 0,0 -3.1,7.5 -2.8,11.9 0.2,3.1 -9.8,15.3 -11.4,17.8 -4.4,7 -3.8,11.7 -3.8,14.8 0,8 6,11 6.1,13 0.1,2.1 -1.4,5.1 -2.4,7.3 -0.3,0.7 0.2,1.6 0.9,1.6 h 18.7 c 0.8,0 1.2,-1.1 0.5,-1.7 -1.2,-1 -2.5,-2.1 -3.1,-2.6 -1.2,-1.1 4.4,-0.5 3.7,-13.6 -0.3,-4.9 8.8,-18.8 11.5,-21.9 2.1,-2.4 2.4,-6.4 3,-6.7 2.9,-1.6 8.6,-6.1 10.6,-9.9 2.3,-4.5 6.2,-18.2 5,-20.7 -0.9,-1.7 -2.2,-1.9 -3,0.1 -0.7,1.8 -3.1,10.8 -8.9,12.7 -2.2,0.8 -3.4,-0.4 -4.7,-2.5 z"
           class="st1"
           id="path13044"
           style="display:inline;fill:#ffffff" /><path
           sodipodi:nodetypes="ccccccccccccccccccc"
           inkscape:connector-curvature="0"
           style="display:inline;fill:#00001a;fill-opacity:1"
           d="m 163,253.73646 c -7,3.5 -17.2,8.7 -16,18.3 1.5,5.2 7.1,8.6 11.6,10.7 24.6,10.9 57.4,11.2 83.4,3.1 6.4,-2.5 15.1,-6.1 16.2,-13.9 -0.1,-6.5 -7,-10.6 -11.9,-13.1 v -0.3 c 1.7,-0.7 3.7,-1.3 5.5,-1.5 v -0.2 c -8.7,-1.6 -17.1,-3.8 -25.6,-6.1 1.6,3.7 2.8,7.6 4.2,11.5 2.5,-0.8 5.1,-1.4 7.9,-1.8 4.5,1.7 10.8,4.2 11.5,9.8 0.5,5.2 -5.2,7.7 -8.8,9.9 -19.1,6.9 -40.6,7.6 -60.5,2.3 -5.5,-1.7 -13.4,-4 -14.1,-11 3.9,-9.2 3.97396,-11.23021 12.37396,-13.53021 -4.3,-2.8 1.32604,-5.16979 -2.87396,-8.26979 -4.6,0.3 -8.8,2.3 -12.9,4.1 z"
           class="st1"
           id="path13046" /></g></g></mask><mask
     maskUnits="userSpaceOnUse"
     id="mask13052"><g
       id="g13062"><path
         style="display:inline;fill:#ffffff"
         id="path13054"
         class="st1"
         d="m 202,290.6 c -0.7,12.4 -0.9,23.9 -2,36.2 5.6,0.4 12,0.9 18,0.1 l -1.8,-34.5 -0.3,-1.6 c -4.5,0.1 -8.9,0.2 -13.9,-0.2 z"
         inkscape:connector-curvature="0" /><g
         id="g13060"><path
           mask="url(#mask12931)"
           inkscape:connector-curvature="0"
           d="m 202.1,260.5 -2.2,-3.5 c 0,0 -3.5,-10.5 -1.5,-13 2,-2.5 5.1,-8 1.9,-10.5 -1.1,-0.9 -7.4,4.2 -8.5,3.9 -4.8,-1.3 -9.6,3.6 -9.6,3.6 0,0 -3.5,0.5 -3.5,2.1 0,4.2 3,3.2 3,3.2 l 0.5,14.6 c 0,0 -3.1,7.5 -2.8,11.9 0.2,3.1 -9.8,15.3 -11.4,17.8 -4.4,7 -3.8,11.7 -3.8,14.8 0,8 6,11 6.1,13 0.1,2.1 -1.4,5.1 -2.4,7.3 -0.3,0.7 0.2,1.6 0.9,1.6 h 18.7 c 0.8,0 1.2,-1.1 0.5,-1.7 -1.2,-1 -2.5,-2.1 -3.1,-2.6 -1.2,-1.1 4.4,-0.5 3.7,-13.6 -0.3,-4.9 8.8,-18.8 11.5,-21.9 2.1,-2.4 2.4,-6.4 3,-6.7 2.9,-1.6 8.6,-6.1 10.6,-9.9 2.3,-4.5 6.2,-18.2 5,-20.7 -0.9,-1.7 -2.2,-1.9 -3,0.1 -0.7,1.8 -3.1,10.8 -8.9,12.7 -2.2,0.8 -3.4,-0.4 -4.7,-2.5 z"
           class="st1"
           id="path13056"
           style="display:inline;fill:#ffffff" /><path
           sodipodi:nodetypes="ccccccccccccccccccc"
           inkscape:connector-curvature="0"
           style="display:inline;fill:#00001a;fill-opacity:1"
           d="m 163,253.73646 c -7,3.5 -17.2,8.7 -16,18.3 1.5,5.2 7.1,8.6 11.6,10.7 24.6,10.9 57.4,11.2 83.4,3.1 6.4,-2.5 15.1,-6.1 16.2,-13.9 -0.1,-6.5 -7,-10.6 -11.9,-13.1 v -0.3 c 1.7,-0.7 3.7,-1.3 5.5,-1.5 v -0.2 c -8.7,-1.6 -17.1,-3.8 -25.6,-6.1 1.6,3.7 2.8,7.6 4.2,11.5 2.5,-0.8 5.1,-1.4 7.9,-1.8 4.5,1.7 10.8,4.2 11.5,9.8 0.5,5.2 -5.2,7.7 -8.8,9.9 -19.1,6.9 -40.6,7.6 -60.5,2.3 -5.5,-1.7 -13.4,-4 -14.1,-11 3.9,-9.2 3.97396,-11.23021 12.37396,-13.53021 -4.3,-2.8 1.32604,-5.16979 -2.87396,-8.26979 -4.6,0.3 -8.8,2.3 -12.9,4.1 z"
           class="st1"
           id="path13058" /></g></g></mask></defs><sodipodi:namedview
   pagecolor="#ffffff"
   bordercolor="#666666"
   borderopacity="1"
   objecttolerance="10"
   gridtolerance="10"
   guidetolerance="10"
   inkscape:pageopacity="0"
   inkscape:pageshadow="2"
   inkscape:window-width="1920"
   inkscape:window-height="1001"
   id="namedview11689"
   showgrid="false"
   inkscape:zoom="0.25"
   inkscape:cx="-245.04308"
   inkscape:cy="993.63929"
   inkscape:window-x="-9"
   inkscape:window-y="-9"
   inkscape:window-maximized="1"
   inkscape:current-layer="layer1"
   fit-margin-top="0"
   fit-margin-left="0"
   fit-margin-right="0"
   fit-margin-bottom="0"
   showguides="false" />
<style
   type="text/css"
   id="style11672">
	.st0{fill:#006699;}
	.st1{fill:#FFFFFF;}
	.st2{fill:none;}
	.st3{font-family:'BaronNeue';}
	.st4{font-size:48px;}
</style>














<g
   inkscape:groupmode="layer"
   id="layer1"
   inkscape:label="Layer 1"
   style="display:inline"
   transform="translate(-2.8659103,-189.0123)"><g
     id="g15446"><g
       id="g13158"><g
         id="g13212"><path
           inkscape:connector-curvature="0"
           d="M 370.18577,362.34941 369.1602,362.1443 C 337.47014,340.60736 307.93378,316.19884 280.03832,288.5085 L 249.27127,256.40821 C 236.75934,242.56304 224.65763,227.28207 213.17126,212.719 l -14.05028,-19.79347 c -1.74347,-1.02557 -3.89716,-2.76903 -5.74318,-3.28182 -4.10228,-1.74347 -8.61478,0.41023 -11.99915,2.97415 l -25.33154,33.0233 c -40.6125,50.3554 -88.711658,97.32643 -141.220755,133.32388 -4.102273,3.28182 -10.3582396,6.35852 -11.5889216,11.79403 -1.3332387,4.82017 1.1281252,8.81989 4.1022732,11.79404 42.0483004,28.92102 82.2505774,63.27756 117.9403534,102.55683 6.35852,6.66619 11.48637,13.33239 17.74233,19.58835 10.4608,13.94773 22.76762,27.99802 32.40796,42.86876 2.97415,3.17926 3.48693,8.3071 8.20455,9.84545 3.69204,1.23069 8.20454,2.1537 11.79403,0 l 3.48694,-3.48693 c 43.48409,-61.63665 98.65967,-116.91478 160.29632,-161.62956 6.15341,-5.53807 17.94745,-7.58921 18.15256,-17.74233 -0.41023,-5.02529 -3.17926,-9.64035 -7.17898,-12.20427 z m -41.94574,15.99887 c -6.97387,17.53722 -21.22927,31.48495 -33.7412,46.86847 -26.97245,29.02358 -55.48324,57.12415 -87.27586,79.5841 -6.46108,4.5125 -15.17841,8.71733 -22.87017,5.12784 -23.48552,-12.30682 -43.17643,-32.40796 -63.79035,-50.66307 -23.793188,-22.15228 -47.688929,-47.79149 -65.738931,-74.66138 -2.666478,-3.7946 -3.486932,-8.40966 -3.384375,-13.43494 2.358807,-9.23011 8.71733,-16.92188 14.665626,-24.7162 21.331821,-27.17756 47.38126,-52.91932 73.84092,-76.50739 0.61534,-0.61534 1.74346,-1.84602 2.66648,-2.46136 11.28125,-9.7429 22.5625,-18.46023 34.45909,-26.97245 12.40938,-9.64034 27.89546,-1.64091 38.35625,7.17898 10.87103,8.3071 22.25484,17.74233 32.20285,27.38267 l 1.84602,1.02557 c 27.58779,25.63921 53.227,54.04745 74.25115,84.0966 3.38437,5.33295 6.35852,11.17869 4.5125,18.15256 z"
           class="st0"
           id="XMLID_110_"
           style="fill:#006699;stroke-width:1.02556825" /><g
           id="g15424"><path
             style="fill:#006699;stroke-width:1.02556825"
             d="M 186.63867 57.84375 C 182.73821 57.918364 178.89142 59.101206 175.33398 61.857422 C 164.46295 69.754292 154.00181 77.754297 143.54102 86.779297 C 142.72056 87.292077 141.59287 88.522366 141.08008 89.035156 C 116.77412 110.67465 92.774895 134.46832 73.083984 159.49219 C 67.545915 166.67117 61.700569 173.74755 59.546875 182.25977 C 59.444319 186.77227 60.161683 191.07947 62.623047 194.56641 C 79.237254 219.38516 101.28721 243.07656 123.23438 263.38281 C 142.20738 280.30469 160.36051 298.86719 182 310.14844 C 189.07642 313.53282 197.07514 309.63452 203.02344 305.42969 C 232.35469 284.71321 258.60898 258.86889 283.42773 232.10156 C 294.9141 217.94871 308.04283 205.12976 314.50391 188.92578 C 316.24738 182.4647 313.4781 177.02915 310.29883 172.20898 C 290.91559 144.51863 267.32667 118.26386 241.89258 94.675781 L 240.25195 93.753906 C 231.12439 84.934026 220.66385 76.215194 210.61328 68.523438 C 204.05606 62.882815 195.21969 57.679599 186.63867 57.84375 z M 186.61523 93.650391 L 186.92188 93.753906 C 192.15228 110.57323 197.58888 127.28913 203.12695 143.80078 L 191.94727 144.00586 L 191.74219 145.54492 L 192.54688 167.50391 C 193.34474 165.59898 193.84197 163.95463 194.10156 163.28711 C 194.92202 161.23597 196.25472 161.44013 197.17773 163.18359 C 198.24246 165.40175 195.39343 176.19712 193.07812 182.0625 L 193.38281 190.36133 L 193.38281 191.08008 C 190.06481 191.7275 186.25254 191.66595 182.76953 191.41211 C 180.55175 191.33493 178.04854 191.21599 174.76953 190.9707 C 164.58203 190.06445 156.6543 187.54883 156.6543 187.54883 C 156.75751 187.15295 156.89889 186.77933 156.87305 186.36133 C 156.56538 181.84883 159.74414 174.1582 159.74414 174.1582 L 159.56836 168.98633 C 152.93317 170.96876 146.49857 173.84742 143.54102 180.82422 C 144.25892 188.0032 152.36133 190.36201 158.00195 192.10547 C 178.41076 197.54098 200.46048 196.82251 220.04883 189.74609 C 223.74088 187.48984 229.58701 184.9267 229.07422 179.59375 C 228.35633 173.85057 221.89436 171.28644 217.2793 169.54297 C 214.40771 169.9532 211.74165 170.56822 209.17773 171.38867 C 207.74193 167.38896 206.51005 163.38835 204.86914 159.59375 C 213.58647 161.95255 222.20256 164.2087 231.125 165.84961 L 231.125 166.05469 C 229.27898 166.2598 227.22783 166.87585 225.48438 167.59375 L 225.48438 167.90234 C 230.50966 170.46626 237.58494 174.66974 237.6875 181.33594 C 236.55937 189.33537 227.63786 193.02788 221.07422 195.5918 C 194.40945 203.89891 160.77 203.59081 135.54102 192.41211 C 130.92596 190.25842 125.18289 186.77241 123.64453 181.43945 C 122.41385 171.594 132.87571 166.26137 140.05469 162.67188 C 144.25952 160.82585 148.56558 158.77447 153.2832 158.4668 C 155.27063 159.93371 157.30297 161.26486 159.34766 162.56055 L 159.23242 159.18359 C 159.23242 159.18359 156.15625 160.20973 156.15625 155.90234 C 156.15625 154.26143 159.74414 153.74805 159.74414 153.74805 C 159.74414 153.74805 164.66712 148.7234 169.58984 150.05664 C 170.64746 150.34508 176.3936 145.76609 178.03711 145.95312 C 178.14668 145.96559 178.23809 145.99895 178.30859 146.05664 C 181.59041 148.62056 178.4105 154.26225 176.35938 156.82617 C 174.30824 159.39009 177.89648 170.1582 177.89648 170.1582 L 180.1543 173.74805 C 180.23802 173.88329 180.3211 174.00318 180.4043 174.13086 L 181.58984 144.41602 L 181.58984 144.10938 C 178.41058 143.69915 174.51324 144.1075 171.33398 143.69727 L 184.05078 102.77734 L 186.61523 93.650391 z M 147.84375 200.97461 C 147.85404 200.97765 157.98737 203.97338 171.2168 205.16602 C 172.66049 205.23265 173.94102 205.27125 175.23828 205.3125 C 171.44565 210.87241 166.07365 220.06103 166.30859 223.89844 C 167.02649 237.33338 161.28299 236.71758 162.51367 237.8457 C 163.12901 238.35849 164.46268 239.48615 165.69336 240.51172 C 166.41126 241.12706 166.00014 242.25586 165.17969 242.25586 L 146.00195 242.25586 C 145.28406 242.25586 144.77241 241.33313 145.08008 240.61523 C 146.10565 238.35898 147.64357 235.28065 147.54102 233.12695 C 147.43846 231.07582 141.28516 227.99947 141.28516 219.79492 C 141.28516 216.61566 140.66914 211.79617 145.18164 204.61719 C 145.38675 204.2967 145.72701 203.82027 146.16406 203.22656 C 146.60113 202.63285 147.24924 201.76621 147.84375 200.97461 z M 194.32812 204.9375 L 194.61328 206.46289 L 196.46094 241.8457 C 190.30753 242.66616 183.74318 242.15241 178 241.74219 C 179.12813 229.1277 179.3114 218.21705 180.0293 205.5 C 182.59322 205.70507 185.01405 205.59126 187.37109 205.41211 C 189.72813 205.23295 192.0206 204.98878 194.32812 204.9375 z "
             transform="translate(2.8659103,189.0123)"
             id="XMLID_103_" /></g><rect
           height="142.554"
           width="39.484379"
           class="st0"
           y="278.86816"
           x="392.13293"
           id="XMLID_127_"
           style="fill:#006699;stroke-width:1.02556825" /><polygon
           transform="matrix(1.0255683,0,0,1.0255683,-24.247797,95.599098)"
           points="503.2,205.7 503.2,234.4 565.2,234.4 565.2,261.3 503.2,261.3 503.2,290.8 570.6,290.8 570.6,317.7 464.7,317.7 464.7,178.7 570.6,178.7 570.6,205.7 "
           class="st0"
           id="XMLID_126_"
           style="fill:#006699" /><polygon
           transform="matrix(1.0255683,0,0,1.0255683,-24.247797,95.599098)"
           points="630.6,205.7 630.6,234.4 692.6,234.4 692.6,261.3 630.6,261.3 630.6,290.8 698,290.8 698,317.7 592.1,317.7 592.1,178.7 698,178.7 698,205.7 "
           class="st0"
           id="XMLID_125_"
           style="fill:#006699" /><polygon
           transform="matrix(1.0255683,0,0,1.0255683,-24.247797,95.599098)"
           points="758.1,205.7 758.1,234.4 820,234.4 820,261.3 758.1,261.3 758.1,290.8 825.4,290.8 825.4,317.7 719.5,317.7 719.5,178.7 825.4,178.7 825.4,205.7 "
           class="st0"
           id="XMLID_123_"
           style="fill:#006699" /><rect
           height="41.022732"
           width="65.636368"
           class="st2"
           y="386.24515"
           x="837.22955"
           id="XMLID_1_"
           style="fill:none;stroke-width:1.02556825" /><g
           aria-label="SB"
           style="font-size:49.22727966px;font-family:BaronNeue;fill:#006699;stroke-width:1.02556825"
           id="XMLID_2_"><path
             inkscape:connector-curvature="0"
             d="m 863.57384,386.01117 v 4.73524 q -2.76423,-1.32202 -5.21598,-1.97102 -2.45175,-0.64899 -4.73524,-0.64899 -3.96606,0 -6.12937,1.53835 -2.13927,1.53836 -2.13927,4.37469 0,2.37964 1.41817,3.60552 1.4422,1.20184 5.4323,1.94698 l 2.93249,0.60091 q 5.4323,1.03358 8.00424,3.65359 2.59597,2.59597 2.59597,6.97066 0,5.21598 -3.50937,7.90809 -3.48533,2.69212 -10.23966,2.69212 -2.54789,0 -5.4323,-0.57688 -2.86038,-0.57688 -5.93708,-1.70661 v -4.99965 q 2.95652,1.65854 5.79285,2.49983 2.83634,0.84128 5.57653,0.84128 4.15836,0 6.41782,-1.6345 2.25945,-1.6345 2.25945,-4.66313 0,-2.64404 -1.6345,-4.13432 -1.61046,-1.49028 -5.31212,-2.23542 l -2.95652,-0.57688 q -5.43231,-1.08165 -7.86002,-3.38918 -2.42771,-2.30753 -2.42771,-6.41782 0,-4.75928 3.3411,-7.49947 3.36515,-2.74019 9.25416,-2.74019 2.52386,0 5.14386,0.4567 2.62001,0.4567 5.3602,1.3701 z"
             style="font-size:49.22727966px;font-family:BaronNeue;fill:#006699;stroke-width:1.02556825"
             id="path13186" /><path
             inkscape:connector-curvature="0"
             d="m 878.16415,403.58204 v 13.1481 h 7.78791 q 3.91799,0 5.79286,-1.61046 1.8989,-1.6345 1.8989,-4.97561 0,-3.36514 -1.8989,-4.95157 -1.87487,-1.61046 -5.79286,-1.61046 z m 0,-14.75857 v 10.81654 h 7.18699 q 3.55744,0 5.28809,-1.32202 1.75468,-1.34606 1.75468,-4.08625 0,-2.71616 -1.75468,-4.06221 -1.73065,-1.34606 -5.28809,-1.34606 z m -4.85542,-3.9901 h 12.40296 q 5.5525,0 8.55709,2.30752 3.00459,2.30753 3.00459,6.56204 0,3.29304 -1.53835,5.24001 -1.53835,1.94698 -4.51891,2.42772 3.58148,0.76917 5.55249,3.22092 1.99505,2.42771 1.99505,6.0813 0,4.80735 -3.269,7.42736 -3.26899,2.62001 -9.30222,2.62001 h -12.8837 z"
             style="font-size:49.22727966px;font-family:BaronNeue;fill:#006699;stroke-width:1.02556825"
             id="path13188" /></g><g
           aria-label="MADRID"
           style="font-size:90.77918243px;font-family:BaronNeue;fill:#006699;stroke-width:1.89123273"
           id="text13143"><path
             inkscape:connector-curvature="0"
             d="m 392.13293,442.69152 h 13.34206 l 16.88812,45.03499 16.97677,-45.03499 h 13.34206 v 66.17838 h -8.73218 v -58.11108 l -17.06542,45.38959 h -8.99814 l -17.06542,-45.38959 v 58.11108 h -8.68785 z"
             style="font-size:90.77918243px;font-family:BaronNeue;fill:#006699;stroke-width:1.89123273"
             id="path13173" /><path
             inkscape:connector-curvature="0"
             d="m 492.61946,451.51235 -12.14527,32.93405 h 24.33485 z m -5.05314,-8.82083 h 10.1506 l 25.22136,66.17838 h -9.30841 l -6.0283,-16.97677 h -29.83125 l -6.0283,16.97677 h -9.44139 z"
             style="font-size:90.77918243px;font-family:BaronNeue;fill:#006699;stroke-width:1.89123273"
             id="path13175" /><path
             inkscape:connector-curvature="0"
             d="m 541.51078,450.0496 v 51.46223 h 10.81549 q 13.69666,0 20.03525,-6.20561 6.38291,-6.20561 6.38291,-19.59199 0,-13.29774 -6.38291,-19.45902 -6.33859,-6.20561 -20.03525,-6.20561 z m -8.95381,-7.35808 h 18.3952 q 19.23738,0 28.23551,8.02297 8.99814,7.97864 8.99814,24.99974 0,17.10974 -9.04246,25.13271 -9.04246,8.02296 -28.19119,8.02296 h -18.3952 z"
             style="font-size:90.77918243px;font-family:BaronNeue;fill:#006699;stroke-width:1.89123273"
             id="path13177" /><path
             inkscape:connector-curvature="0"
             d="m 633.79704,477.84186 q 2.88118,0.97517 5.58505,4.16663 2.7482,3.19145 5.49639,8.7765 l 9.08679,18.08491 h -9.6187 l -8.46622,-16.97677 q -3.28011,-6.64886 -6.38291,-8.82083 -3.05848,-2.17196 -8.37757,-2.17196 h -9.75167 v 27.96956 h -8.95381 v -66.17838 h 20.21256 q 11.34739,0 16.93244,4.74286 5.58505,4.74286 5.58505,14.31723 0,6.24993 -2.9255,10.37223 -2.88118,4.12229 -8.4219,5.71802 z M 611.3682,450.0496 v 23.49266 h 11.25875 q 6.47156,0 9.75167,-2.96982 3.32443,-3.01416 3.32443,-8.82083 0,-5.80668 -3.32443,-8.73218 -3.28011,-2.96983 -9.75167,-2.96983 z"
             style="font-size:90.77918243px;font-family:BaronNeue;fill:#006699;stroke-width:1.89123273"
             id="path13179" /><path
             inkscape:connector-curvature="0"
             d="m 665.5343,442.69152 h 8.9538 v 66.17838 h -8.9538 z"
             style="font-size:90.77918243px;font-family:BaronNeue;fill:#006699;stroke-width:1.89123273"
             id="path13181" /><path
             inkscape:connector-curvature="0"
             d="m 701.26087,450.0496 v 51.46223 h 10.81549 q 13.69666,0 20.03525,-6.20561 6.38291,-6.20561 6.38291,-19.59199 0,-13.29774 -6.38291,-19.45902 -6.33859,-6.20561 -20.03525,-6.20561 z m -8.95381,-7.35808 h 18.3952 q 19.23738,0 28.23552,8.02297 8.99813,7.97864 8.99813,24.99974 0,17.10974 -9.04246,25.13271 -9.04246,8.02296 -28.19119,8.02296 h -18.3952 z"
             style="font-size:90.77918243px;font-family:BaronNeue;fill:#006699;stroke-width:1.89123273"
             id="path13183" /></g></g></g></g></g><g
   inkscape:groupmode="layer"
   id="layer2"
   inkscape:label="Layer 2"
   style="display:inline"
   transform="translate(-2.8659103,-189.0123)" /></svg>